<svg xmlns="http://www.w3.org/2000/svg" width="24" height="24" viewBox="0 0 24 24">
  <g fill="none" stroke="#000000" stroke-width="1.35" stroke-linecap="round" stroke-linejoin="round">
    <path d="M 8.1 8.7
             C 8.3 7.2 9.8 6.3 12 6.3
             C 14.2 6.3 15.7 7.2 15.9 8.7"/>
    <path d="M 8.5 8.9
             C 8.5 11.0 9.3 12.7 10.4 13.6
             H 13.6
             C 14.7 12.7 15.5 11.0 15.5 8.9"/>
    <path d="M 16.0 9.5
             H 17.2
             C 18.2 9.5 18.9 10.2 18.9 11.1
             C 18.9 12.0 18.2 12.7 17.2 12.7
             H 16.2"/>
    <path d="M 7.3 15.6 H 16.7"/>
    <path d="M 6.9 16.4 H 17.1"/>
    <path d="M 10.3 5.1 C 10.3 4.4 10.5 4.0 10.9 3.5"/>
    <path d="M 12.0 5.0 C 12.0 4.3 12.2 3.9 12.6 3.4"/>
  </g>
</svg>
