<svg xmlns="http://www.w3.org/2000/svg" width="960" height="240" viewBox="0 0 960 240">
  <defs>
    <linearGradient id="sky" x1="0" y1="0" x2="0" y2="1">
      <stop offset="0" stop-color="#1b1630"/>
      <stop offset="0.45" stop-color="#5d3154"/>
      <stop offset="1" stop-color="#f0a45f"/>
    </linearGradient>
    <linearGradient id="sand1" x1="0" y1="0" x2="1" y2="1">
      <stop offset="0" stop-color="#f6c47a"/>
      <stop offset="0.55" stop-color="#c56a3c"/>
      <stop offset="1" stop-color="#5b2440"/>
    </linearGradient>
    <linearGradient id="sand2" x1="0" y1="0" x2="1" y2="1">
      <stop offset="0" stop-color="#ffe3a6"/>
      <stop offset="0.5" stop-color="#d98749"/>
      <stop offset="1" stop-color="#7a3345"/>
    </linearGradient>
    <filter id="soft" x="-10%" y="-10%" width="120%" height="120%">
      <feGaussianBlur stdDeviation="1.4"/>
    </filter>
  </defs>
  <rect width="960" height="240" fill="url(#sky)"/>
  <circle cx="720" cy="48" r="30" fill="#ffd28a" opacity="0.86" filter="url(#soft)"/>
  <path d="M0 168 C140 112 250 118 390 154 C520 188 644 130 760 120 C844 112 910 138 960 158 L960 240 L0 240 Z" fill="url(#sand1)"/>
  <path d="M0 206 C100 154 232 143 352 174 C484 209 612 186 735 150 C832 121 906 122 960 145 L960 240 L0 240 Z" fill="url(#sand2)" opacity="0.95"/>
  <path d="M70 220 C180 178 300 171 430 198 C558 224 674 198 790 162" fill="none" stroke="#fff0b8" stroke-width="2" opacity="0.28"/>
  <path d="M380 213 C500 174 610 168 730 190 C820 206 892 197 960 170" fill="none" stroke="#3d1830" stroke-width="2" opacity="0.18"/>
</svg>
